HIERARCHY
ROOT Hips
{
	OFFSET -0.179506 -22.333345 2.821913
	CHANNELS 6 Xposition Yposition Zposition Zrotation Yrotation Xrotation 
	JOINT LeftUpLeg
	{
		OFFSET 6.951974 -9.140623 -0.681533
		CHANNELS 3 Zrotation Yrotation Xrotation
		JOINT LeftLeg
		{
			OFFSET 3.427654 -37.519855 -0.449580
			CHANNELS 3 Zrotation Yrotation Xrotation
			JOINT LeftFoot
			{
				OFFSET -1.359570 -39.796059 -4.369333
				CHANNELS 3 Zrotation Yrotation Xrotation
				JOINT LeftToe
				{
					OFFSET 2.635814 -5.579078 11.928840
					CHANNELS 3 Zrotation Yrotation Xrotation
					End Site
					{
						OFFSET 0.000000 0.000000 0.000000
					}
				}
			}
		}
	}
	JOINT RightUpLeg
	{
		OFFSET -6.767048 -9.052170 -0.431982
		CHANNELS 3 Zrotation Yrotation Xrotation
		JOINT RightLeg
		{
			OFFSET -3.829005 -38.256897 -0.885003
			CHANNELS 3 Zrotation Yrotation Xrotation
			JOINT RightFoot
			{
				OFFSET 1.577377 -39.841461 -4.231180
				CHANNELS 3 Zrotation Yrotation Xrotation
				JOINT RightToe
				{
					OFFSET -2.537174 -4.814398 12.334795
					CHANNELS 3 Zrotation Yrotation Xrotation
					End Site
					{
						OFFSET 0.000000 0.000000 0.000000
					}
				}
			}
		}
	}
	JOINT Spine
	{
		OFFSET -0.253288 10.896323 -2.669631
		CHANNELS 3 Zrotation Yrotation Xrotation
		JOINT Spine1
		{
			OFFSET 0.548704 13.518043 0.109247
			CHANNELS 3 Zrotation Yrotation Xrotation
			JOINT Spine2
			{
				OFFSET 0.145701 5.292222 2.542457
				CHANNELS 3 Zrotation Yrotation Xrotation
				JOINT Neck
				{
					OFFSET -0.277840 21.387037 -4.285703
					CHANNELS 3 Zrotation Yrotation Xrotation
					JOINT Head
					{
						OFFSET 0.515184 6.496960 5.134897
						CHANNELS 3 Zrotation Yrotation Xrotation
						End Site
						{
							OFFSET 0.000000 0.000000 0.000000
						}
					}
				}
				JOINT LeftShoulder
				{
					OFFSET 7.884473 12.174932 -3.408961
					CHANNELS 3 Zrotation Yrotation Xrotation
					JOINT LeftArm
					{
						OFFSET 9.097692 3.046888 -0.886815
						CHANNELS 3 Zrotation Yrotation Xrotation
						JOINT LeftForeArm
						{
							OFFSET 25.961220 -1.277207 -2.745643
							CHANNELS 3 Zrotation Yrotation Xrotation
							JOINT LeftHand
							{
								OFFSET 24.923361 0.898606 -0.117091
								CHANNELS 3 Zrotation Yrotation Xrotation
								End Site
								{
									OFFSET 0.000000 0.000000 0.000000
								}
							}
						}
					}
				}
				JOINT RightShoulder
				{
					OFFSET -8.175920 11.883285 -3.861528
					CHANNELS 3 Zrotation Yrotation Xrotation
					JOINT RightArm
					{
						OFFSET -9.601238 3.255117 -0.914307
						CHANNELS 3 Zrotation Yrotation Xrotation
						JOINT RightForeArm
						{
							OFFSET -25.374195 -1.332924 -2.140099
							CHANNELS 3 Zrotation Yrotation Xrotation
							JOINT RightHand
							{
								OFFSET -25.529810 0.777228 -0.555919
								CHANNELS 3 Zrotation Yrotation Xrotation
								End Site
								{
									OFFSET 0.000000 0.000000 0.000000
								}
							}
						}
					}
				}
			}
		}
	}
}
MOTION
Frames: 13
Frame Time: 0.033333
-0.179506 55.749268 2.821913 131.673510 -83.007683 140.983037 0.412925 0.730294 4.065491 0.662471 -1.850917 1.435108 -5.162089 7.882154 20.934906 -0.362593 -0.349426 -0.372244 -2.786725 -4.968100 3.138077 -0.130287 -2.835480 4.154099 10.574265 -7.728818 22.638206 -0.143270 -1.248546 0.855395 -1.210152 -1.259260 15.464966 -0.713543 -2.569631 -8.039578 3.019360 -3.685536 6.389673 -0.757166 -4.183648 -2.671835 2.502498 2.109092 0.281343 -13.423427 -2.649210 5.496272 -50.946849 -2.613619 14.792688 -10.583615 -20.644785 24.668774 -16.834631 -12.662025 -1.506032 9.926357 5.521001 1.109488 58.536679 2.661289 20.718697 2.160412 22.476452 14.292852 15.480350 4.103829 2.099255 
-0.096812 55.748550 2.990520 134.274648 -83.155988 138.290718 0.547027 0.707963 4.046705 0.614404 -1.795671 1.566302 -5.326746 7.719717 21.167815 -0.390550 -0.412133 -0.429790 -2.733731 -4.941497 3.257503 -0.095017 -3.058038 4.152894 10.642786 -7.886040 23.113285 -0.142514 -1.277830 0.896784 -1.292048 -1.266103 15.403797 -0.615160 -2.569523 -7.798714 3.031373 -3.715175 6.313312 -0.871788 -4.113790 -2.777578 2.454686 2.185761 -0.085551 -13.608628 -2.932867 5.576878 -50.828161 -2.710076 15.074327 -10.647781 -20.871490 24.737651 -16.859234 -12.734509 -1.746052 10.257109 5.641120 1.416437 58.060673 2.783422 20.875691 2.116602 22.462119 14.096026 15.703166 3.969517 2.009070 
-0.061146 55.743958 3.082727 134.612346 -83.131212 137.932681 0.642527 0.794170 4.034508 0.488311 -1.642006 1.593319 -5.426735 7.523620 21.347912 -0.406316 -0.396176 -0.445256 -2.789953 -4.970685 3.280593 -0.025025 -3.134767 4.115359 10.716431 -7.883049 23.339934 -0.046902 -1.220847 0.899976 -1.332841 -1.273947 15.370107 -0.612485 -2.602735 -7.787199 3.057044 -3.729406 6.332780 -0.976605 -4.055210 -2.866694 2.484514 2.349287 -0.381828 -13.639515 -3.104780 5.705561 -50.779131 -2.679648 15.237331 -10.886343 -21.103599 24.928989 -16.942028 -12.787752 -1.965233 10.401969 5.802038 1.632555 57.816989 2.822646 20.872985 2.076560 22.618949 13.959961 16.050081 3.827840 2.094450 
-0.094895 55.739738 3.116299 135.888840 -83.119727 136.832650 0.783768 0.794084 3.962535 0.470803 -1.505132 1.403434 -5.425936 7.304075 21.242807 -0.406506 -0.398016 -0.469778 -2.735525 -4.966906 3.223687 0.117019 -3.276522 3.929712 10.739385 -7.842114 23.333527 -0.024898 -1.159274 0.875403 -1.422389 -1.251986 15.271181 -0.507501 -2.617546 -7.728673 3.022408 -3.746729 6.289595 -1.001320 -3.928843 -2.990149 2.514694 2.546444 -0.644493 -13.802077 -3.252342 5.802582 -50.573292 -2.650050 15.378592 -11.202012 -21.620874 25.078682 -16.810752 -12.774516 -2.264977 10.796761 5.825943 1.883126 57.285388 2.784039 20.935206 2.191236 23.133465 13.874317 16.064850 3.758841 2.154271 
-0.038553 55.733261 2.785180 134.780125 -83.355984 137.855227 0.751341 0.763166 3.977216 0.468808 -1.406971 1.535258 -5.656436 7.087386 21.432128 -0.453040 -0.422139 -0.507530 -2.746993 -4.901708 3.387133 0.060365 -3.441403 3.818685 10.591283 -7.995974 23.310645 0.028208 -1.208187 0.870631 -1.533984 -1.259021 15.341427 -0.441458 -2.560620 -7.593172 3.011757 -3.775234 6.202320 -1.097478 -3.787376 -3.104522 2.427238 2.704222 -1.023697 -13.911354 -3.524784 5.731755 -50.263190 -2.719945 15.540335 -11.869844 -22.312628 25.572558 -16.750328 -12.832618 -2.373581 11.002324 5.816730 2.077621 57.014916 2.640472 21.026627 2.624579 24.230071 13.738542 16.183748 3.945563 1.847971 
-0.045228 55.722916 2.478017 134.451955 -83.501363 138.286721 0.858612 0.769115 3.776036 0.432603 -1.348788 1.725395 -5.821215 6.850006 21.356660 -0.445080 -0.414496 -0.527946 -2.703502 -4.797368 3.282045 0.146938 -3.554787 3.872568 10.444234 -8.057207 23.090620 0.067717 -1.156654 0.790173 -1.619388 -1.275601 15.289814 -0.416552 -2.564923 -7.622430 3.041113 -3.841371 6.276200 -1.139559 -3.799787 -3.361144 2.430371 2.831324 -1.439241 -14.027860 -3.651680 5.630457 -50.085653 -2.900452 15.688163 -12.530443 -23.406427 26.150157 -16.372551 -12.934124 -2.730558 11.199364 5.767387 2.070038 56.641069 2.666181 21.100292 3.052878 25.687609 13.810843 15.977532 4.184551 1.644225 
-0.049811 55.709023 2.155090 133.459341 -83.586456 139.377883 0.961721 0.782037 3.656699 0.370765 -1.148886 1.797405 -5.924579 6.564658 21.309023 -0.484727 -0.384187 -0.503667 -2.676787 -4.826430 3.301621 0.230421 -3.798724 3.638732 10.399815 -8.170741 22.954668 0.025517 -1.096792 0.701336 -1.761023 -1.281719 15.180084 -0.339027 -2.505299 -7.547458 3.019299 -3.833144 6.263973 -1.206908 -3.748251 -3.482552 2.445274 3.004096 -1.803958 -13.949002 -3.828285 5.605910 -49.534154 -3.132091 15.855667 -13.339528 -25.111144 26.455253 -16.153269 -13.282958 -3.355699 11.293243 5.916692 2.059415 55.958506 2.853789 21.014021 3.284237 28.082551 13.649229 16.020725 4.659094 1.172118 
-0.046983 55.694275 1.857400 132.010438 -83.635226 140.798639 1.016803 0.758402 3.666771 0.327275 -1.063476 1.871106 -6.107345 6.472739 21.275363 -0.548974 -0.335166 -0.432764 -2.687222 -4.805554 3.395300 0.267427 -3.968923 3.511435 10.448222 -8.219471 22.806364 0.072195 -1.120474 0.586781 -1.897428 -1.275556 15.030666 -0.281039 -2.459792 -7.452366 3.059939 -3.847444 6.230522 -1.359674 -3.545310 -3.547497 2.490408 3.418146 -2.096807 -13.754253 -3.773136 5.586152 -48.545346 -3.210187 16.027682 -14.348893 -27.413852 26.923251 -15.779202 -13.854281 -4.333743 11.030606 5.790139 1.921094 54.964454 2.806024 20.874781 3.421898 31.275820 13.278447 15.920754 5.219252 0.220805 
-0.023647 55.679764 1.717414 131.703009 -83.708268 141.032400 1.049252 0.690032 3.816571 0.318276 -1.084550 1.714380 -6.258663 6.501786 21.409121 -0.611701 -0.284486 -0.417684 -2.678916 -4.873343 3.531776 0.259916 -4.385717 3.375707 10.564595 -8.328057 22.843830 0.163340 -1.150203 0.480922 -2.000430 -1.326435 14.958812 -0.248791 -2.371399 -7.591923 3.165724 -3.898336 6.364667 -1.492457 -3.401327 -3.746942 2.553311 3.887674 -2.416400 -13.257666 -3.580081 5.456268 -47.309959 -3.317527 16.139997 -15.814105 -30.563395 27.500542 -15.234732 -14.718004 -5.855801 10.692881 5.349719 1.846923 53.594323 2.563709 20.753499 3.756464 35.185101 12.834637 15.786841 5.950008 -1.110230 
-0.029758 55.666077 1.518509 131.698821 -83.685457 141.336926 1.072677 0.594290 3.627686 0.510414 -1.489908 1.459673 -6.257892 6.685224 21.429781 -0.518533 -0.373182 -0.493878 -2.499608 -4.999929 3.419129 0.266554 -5.015737 2.946707 10.807394 -8.517808 22.758144 -0.013949 -1.018747 0.130953 -2.117641 -1.420477 14.908372 -0.367918 -2.273873 -8.206964 3.309419 -4.005517 6.952599 -1.671958 -3.577487 -4.285945 2.681083 4.023631 -2.832547 -12.439793 -3.223790 5.127179 -45.352850 -3.423867 16.206772 -18.341622 -34.900378 28.892979 -14.080008 -15.605314 -7.911065 10.148747 4.660838 1.755207 51.301790 2.203825 20.446454 4.953707 40.270153 13.230029 14.665183 6.924939 -2.468211 
-0.100425 55.646988 2.019885 134.446806 -83.489683 138.714915 1.087095 0.458635 3.675781 0.590420 -1.734733 1.121277 -6.137610 6.991461 21.052207 -0.501878 -0.308820 -0.415968 -2.451937 -4.975736 3.415804 0.358029 -5.471558 2.661254 11.121914 -8.623450 22.941685 0.071117 -1.083927 -0.419771 -2.336547 -1.584508 14.744283 -0.147973 -2.154548 -8.295437 3.466514 -4.042991 7.132265 -1.828868 -3.403243 -4.576219 2.916625 4.370071 -3.334690 -11.422839 -2.895967 4.792883 -42.956012 -3.476529 16.216754 -20.845895 -40.908184 29.244570 -12.417853 -16.861948 -10.619832 9.670553 3.962548 1.604813 49.041395 1.530527 20.247046 4.736650 46.651954 12.162289 13.871453 8.052656 -4.082615 
-0.304919 55.629532 2.395231 135.996557 -83.126241 137.705477 1.197366 0.386620 3.399305 0.638797 -1.827009 0.690782 -5.979957 7.173471 20.195963 -0.536089 -0.173010 -0.391246 -2.304401 -4.953261 3.177994 0.480874 -5.672925 2.090977 11.528425 -8.420430 22.430669 0.002157 -1.216845 -0.880506 -2.468619 -1.568330 14.311314 -0.082049 -2.072599 -8.371979 3.694447 -4.019948 7.248924 -2.034555 -3.353410 -4.987487 2.942757 4.728587 -3.400191 -10.364837 -2.484117 4.453917 -39.626421 -3.647348 15.821626 -23.985755 -47.780163 30.408700 -10.433742 -17.749940 -13.568556 9.109431 2.888788 1.324396 45.831104 0.539689 19.986600 5.277050 53.926439 12.158873 12.543525 8.962176 -5.414483 
-0.415336 55.610123 2.425161 137.121977 -83.081224 136.862502 1.276601 0.294544 3.401957 0.714407 -1.949020 0.177892 -6.109788 7.446301 19.685562 -0.505817 -0.152994 -0.421635 -2.277323 -5.096779 2.887738 0.686288 -6.194571 2.142630 11.679666 -8.272345 21.973962 0.154906 -1.216074 -1.179123 -2.545349 -1.653970 14.205333 -0.030205 -1.972878 -8.593928 3.873687 -3.974579 7.339653 -2.227143 -3.461889 -5.472490 3.115972 4.934264 -3.570442 -9.160685 -1.995758 3.974266 -35.403397 -3.818614 14.807541 -27.345309 -55.596032 31.224465 -8.228190 -18.954103 -17.144791 8.395950 1.786387 1.186554 42.144990 -0.568998 19.465219 5.962113 62.400209 12.830870 10.829096 9.993625 -6.967290 
